Coordinates
version=1
nRows=13
nColumns=40
inDegrees=yes

Units are S.I. units (second, meters, Newtons, ...)
Angles are in degrees.

endheader
time	pelvis_tilt	pelvis_list	pelvis_rotation	pelvis_tx	pelvis_ty	pelvis_tz	hip_flexion_r	hip_adduction_r	hip_rotation_r	knee_angle_r	knee_angle_r_beta	ankle_angle_r	subtalar_angle_r	mtp_angle_r	hip_flexion_l	hip_adduction_l	hip_rotation_l	knee_angle_l	knee_angle_l_beta	ankle_angle_l	subtalar_angle_l	mtp_angle_l	lumbar_extension	lumbar_bending	lumbar_rotation	arm_flex_r	arm_add_r	arm_rot_r	elbow_flex_r	pro_sup_r	wrist_flex_r	wrist_dev_r	arm_flex_l	arm_add_l	arm_rot_l	elbow_flex_l	pro_sup_l	wrist_flex_l	wrist_dev_l
      1.23000000	      0.40167132	      2.43841622	     -5.73265937	     -0.87214547	      0.89510817	     -1.02707789	      9.50076105	     -7.48142128	     -2.60801284	    -56.06741511	     -0.97856100	     -6.94304460	    -13.27607040	      1.28376752	      7.52691431	     -4.56012518	     13.95871683	    -12.08554861	     -0.21093262	      3.81642657	     -0.66578013	     -5.12855749	     -8.23287553	     -2.72822950	      3.22650916	     11.77550586	     -8.36696908	     20.06479423	     15.66670735	     89.95437384	      0.00000000	      0.00000000	      3.95484874	      9.73549499	    -21.20275031	     17.37949359	     89.95437384	      0.00000000	      0.00000000
      1.24000000	      0.53682158	      2.33609209	     -5.68158710	     -0.86728495	      0.89553369	     -1.02798558	     10.22539009	     -7.32258374	     -2.63831240	    -56.79047308	     -0.99118074	     -5.87263273	    -13.74788374	      1.39914721	      6.94629662	     -4.56849355	     13.92411346	    -11.97840920	     -0.20906268	      4.04552950	     -0.79383384	     -5.12149089	     -8.29460214	     -2.57187979	      2.94267505	     11.75412057	     -8.38108611	     20.03709515	     15.64752766	     89.95437384	      0.00000000	      0.00000000	      4.55573614	      9.93510790	    -21.08184624	     17.48217536	     89.95437384	      0.00000000	      0.00000000
      1.25000000	      0.62500540	      2.20112355	     -5.63088726	     -0.86267546	      0.89602297	     -1.02892673	     10.99024148	     -7.03624355	     -2.55104869	    -57.24314944	     -0.99908143	     -5.07007493	    -14.19282189	      1.53332821	      6.45268843	     -4.55458883	     13.93054723	    -11.87695633	     -0.20729199	      4.25715418	     -0.84925394	     -5.10516824	     -8.35845272	     -2.36125237	      2.65061303	     11.76982104	     -8.41055195	     19.98640411	     15.68875928	     89.95437384	      0.00000000	      0.00000000	      5.18380101	     10.10522820	    -20.95847074	     17.58934774	     89.95437384	      0.00000000	      0.00000000
      1.26000000	      0.71616847	      2.06889093	     -5.58374345	     -0.85803332	      0.89655500	     -1.02977139	     11.68690903	     -6.64378070	     -2.32605341	    -57.48780718	     -1.00335152	     -4.20355980	    -14.65451846	      1.70749585	      5.96723614	     -4.53363019	     13.79610745	    -11.79221822	     -0.20581303	      4.50223369	     -0.94580563	     -5.09790958	     -8.39757795	     -2.16420917	      2.41134131	     11.75069816	     -8.44032289	     19.92975132	     15.69238258	     89.95437384	      0.00000000	      0.00000000	      5.83968335	     10.28101763	    -20.79266564	     17.68833997	     89.95437384	      0.00000000	      0.00000000
      1.27000000	      0.79803970	      1.77261950	     -5.54996168	     -0.85343566	      0.89717293	     -1.03034185	     12.31338233	     -5.96543105	     -2.06209154	    -57.45602897	     -1.00279688	     -3.47783094	    -15.11572836	      2.32745001	      5.45576674	     -4.32528720	     13.59406633	    -11.69529318	     -0.20412137	      4.74285637	     -0.87188986	     -5.04170383	     -8.47396664	     -1.81328353	      2.22417025	     11.65456529	     -8.50202681	     19.72436988	     15.90924949	     89.95437384	      0.00000000	      0.00000000	      6.47965654	     10.44183823	    -20.38591469	     17.87879451	     89.95437384	      0.00000000	      0.00000000
      1.28000000	      0.83337787	      1.58279573	     -5.45910002	     -0.84898094	      0.89767037	     -1.03113435	     13.02568434	     -5.53098233	     -1.99467588	    -57.32168635	     -1.00045216	     -3.05711955	    -15.01449162	      2.60979921	      5.08781328	     -4.21952230	     13.42467496	    -11.71507755	     -0.20446668	      4.97719437	     -0.91330469	     -4.99939441	     -8.47780039	     -1.53931728	      1.95115450	     11.62676384	     -8.52009115	     19.65942361	     15.93896200	     89.95437384	      0.00000000	      0.00000000	      7.13795861	     10.59198340	    -20.05886709	     17.99298478	     89.95437384	      0.00000000	      0.00000000
      1.29000000	      0.80363138	      1.43712752	     -5.33563932	     -0.84442360	      0.89798420	     -1.03194001	     13.80805544	     -5.18567578	     -2.06671063	    -57.08478552	     -0.99631746	     -2.73356000	    -14.80411769	      2.68566063	      4.76152751	     -4.14693542	     13.42493298	    -11.68023292	     -0.20385852	      5.18347166	     -0.91865339	     -4.95413266	     -8.37365496	     -1.31463073	      1.60595439	     11.54689273	     -8.53406001	     19.60011582	     16.06416288	     89.95437384	      0.00000000	      0.00000000	      7.70667301	     10.79598556	    -19.86569876	     18.21068474	     89.95437384	      0.00000000	      0.00000000
      1.30000000	      1.15565964	      1.02005356	     -5.17392393	     -0.83968157	      0.89900093	     -1.03256353	     13.91291686	     -4.42626972	     -2.04411945	    -56.37806413	     -0.98398284	     -2.07502262	    -14.61770204	      3.81768241	      3.87699070	     -3.83999477	     12.99261275	    -11.48121866	     -0.20038507	      5.52728762	     -0.91482836	     -4.82820421	     -8.75352572	     -0.83600851	      1.27785266	     11.51988859	     -8.56457994	     19.40344784	     16.21351935	     89.95437384	      0.00000000	      0.00000000	      8.34631730	     10.83809409	    -18.87764374	     18.39929520	     89.95437384	      0.00000000	      0.00000000
      1.31000000	      1.16503035	      0.71440613	     -5.08783182	     -0.83516083	      0.89931151	     -1.03298156	     14.52709076	     -3.80684229	     -2.06806593	    -55.75689263	     -0.97314136	     -1.33200153	    -14.25919089	      4.24494208	      3.47927508	     -3.60285070	     12.68757200	    -11.44637671	     -0.19977696	      5.84789161	     -0.76511488	     -4.70953272	     -8.71573285	     -0.47865158	      1.06900374	     11.37410072	     -8.59926300	     19.40380266	     16.44637440	     89.95437384	      0.00000000	      0.00000000	      8.91181317	     11.00075129	    -18.50275864	     18.73361663	     89.95437384	      0.00000000	      0.00000000
      1.32000000	      1.10041974	      0.79108125	     -4.94444685	     -0.83139068	      0.89938056	     -1.03392423	     15.46285626	     -3.71401892	     -2.14728593	    -55.28020314	     -0.96482156	     -1.21464963	    -13.80843522	      4.18543589	      3.41122007	     -3.73204265	     12.75259598	    -11.68231213	     -0.20389481	      5.84491079	     -0.73853040	     -4.63021435	     -8.71280059	     -0.50036320	      0.74512911	     11.30830319	     -8.65478069	     19.33072467	     16.76777295	     89.95437384	      0.00000000	      0.00000000	      9.54703968	     11.27695683	    -18.33815262	     19.21513112	     89.95437384	      0.00000000	      0.00000000
      1.33000000	      1.15341248	      0.49514662	     -4.76399035	     -0.82647777	      0.89963045	     -1.03462775	     15.85475203	     -3.15035273	     -2.26060677	    -54.24220880	     -0.94670514	     -0.36499822	    -13.46035612	      4.29008962	      2.79131688	     -3.51940325	     12.56748521	    -11.34289925	     -0.19797094	      6.16972963	     -1.08680526	     -4.63644886	     -8.64238800	     -0.10143054	      0.33745118	     11.23740363	     -8.63400026	     19.25904178	     16.75053273	     89.95437384	      0.00000000	      0.00000000	      9.96689538	     11.41005324	    -17.95006302	     19.52585435	     89.95437384	      0.00000000	      0.00000000
      1.34000000	      1.06052072	      0.51512499	     -4.66793107	     -0.82215663	      0.89949083	     -1.03536454	     16.63837550	     -3.04350325	     -2.47889378	    -53.37183975	     -0.93151433	     -0.10356802	    -13.14548076	      4.27082154	      2.58360493	     -3.59753036	     12.71841351	    -11.33443423	     -0.19782320	      6.36693835	     -1.10615460	     -4.60005809	     -8.47222896	     -0.06411401	      0.05573005	     11.11936349	     -8.64593614	     19.20289277	     16.91450827	     89.95437384	      0.00000000	      0.00000000	     10.48873583	     11.61658599	    -17.77725369	     19.90871760	     89.95437384	      0.00000000	      0.00000000
      1.35000000	      1.49428362	      0.04481171	     -4.47083408	     -0.81746736	      0.90028310	     -1.03574345	     16.49739099	     -2.35058242	     -2.66955299	    -52.06822476	     -0.90876196	      0.54423818	    -12.54734850	      4.42523508	      1.58696884	     -3.17078563	     12.50193052	    -11.10560269	     -0.19382933	      6.73797267	     -1.39772519	     -4.56526678	     -8.96309256	      0.45110856	     -0.29206661	     11.07816166	     -8.65313417	     18.93961480	     17.04861932	     89.95437384	      0.00000000	      0.00000000	     10.95033699	     11.75808413	    -17.09946280	     20.50225560	     89.95437384	      0.00000000	      0.00000000
